<svg width="1482" height="1430" xmlns="http://www.w3.org/2000/svg" xmlns:xlink="http://www.w3.org/1999/xlink" xml:space="preserve" overflow="hidden"><defs><clipPath id="clip0"><rect x="1392" y="543" width="1482" height="1430"/></clipPath><clipPath id="clip1"><rect x="1541" y="779" width="357" height="712"/></clipPath><clipPath id="clip2"><rect x="1541" y="779" width="357" height="712"/></clipPath></defs><g clip-path="url(#clip0)" transform="translate(-1392 -543)"><g clip-path="url(#clip1)"><g clip-path="url(#clip2)"><g><path d="M661.121 931.12 729.388 913.367 729.993 897.066 719.691 896.694 719.367 905.319 658.874 921.065 582.665 935.351 539.496 968.912 545.833 977.04 587.02 945.018Z" stroke="#FFFFFF" stroke-width="2.1147" fill="#A6CAEC" transform="matrix(1.00265 0 0 1 701.338 287.456)"/><path d="M1054.62 921.15 993.771 905.319 993.458 896.694 983.147 897.066 983.749 913.367 1052.37 931.197 1126.12 945.018 1167.31 977.04 1173.64 968.912 1130.47 935.351Z" stroke="#FFFFFF" stroke-width="2.1147" fill="#A6CAEC" transform="matrix(1.00265 0 0 1 701.338 287.456)"/><path d="M1097.95 1191.83 1011.76 1106.84 946.084 991.656 950.793 906.814 878.682 820.708C921.636 845.716 991.021 885.425 1018.75 897.445 1060.22 915.422 1132.73 876.046 1157.27 862.06 1181.81 848.081 1126.26 827.07 1126.26 827.07L897.669 804.879 979.255 791.618 979.735 804.532 990.037 804.151 989.128 779.572 885.251 796.451 984.642 726.556 960.674 666.656 1020.66 571.611 1107.38 523.064 1102.35 514.067 1013.33 563.893 949.149 665.607 972.043 722.821 886.522 782.961C889.084 775.714 890.547 767.445 890.547 758.652 890.547 741.402 884.936 726.176 876.362 716.823 896.387 648.382 942.466 600.37 942.977 599.841L935.592 592.654C933.46 594.843 888.737 641.4 867.645 709.966 865.744 708.974 863.762 708.246 861.73 707.768L861.73 549.412 851.427 549.412 851.427 707.785C849.386 708.255 847.411 708.982 845.511 709.983 824.401 641.417 779.689 594.852 777.557 592.662L770.171 599.849C770.683 600.37 816.751 648.299 836.787 716.823 828.21 726.176 822.601 741.41 822.601 758.652 822.601 767.453 824.063 775.723 826.624 782.969L741.106 722.821 763.999 665.607 699.803 563.893 610.789 514.067 605.757 523.064 692.483 571.611 752.474 666.656 728.506 726.556 827.88 796.451 724.003 779.564 723.094 804.143 733.405 804.524 733.876 791.609 815.463 804.879 586.88 827.07C586.88 827.07 531.326 848.081 555.871 862.06 580.41 876.046 652.916 915.422 694.393 897.445 722.127 885.425 791.512 845.71 834.456 820.708L762.347 906.814 767.055 991.656 701.381 1106.84 615.192 1191.83 622.438 1199.16 709.13 1113.68 709.644 1113.17 776.772 995.448 777.523 994.126 772.863 910.317 836.926 833.819C832.167 858.83 829.234 892.876 829.234 930.427 829.234 1007.19 841.472 1069.4 856.573 1069.4 871.668 1069.4 883.904 1007.18 883.904 930.427 883.904 892.876 880.97 858.83 876.211 833.819L940.274 910.317 935.615 994.126 1003.5 1113.18 1090.7 1199.17Z" stroke="#FFFFFF" stroke-width="2.1147" fill="#A6CAEC" transform="matrix(1.00265 0 0 1 701.338 287.456)"/></g></g></g><path d="M0 0 1737.25 0 1737.25 1737.25 0 1737.25Z" stroke="#FFFFFF" stroke-width="108.578" stroke-linecap="round" stroke-linejoin="round" fill="none" transform="matrix(1.0003 0 0 1 1266.79 431.903)"/><path d="M217.156 361.927C217.156 321.95 249.565 289.542 289.542 289.542L1447.71 289.542C1487.69 289.542 1520.09 321.95 1520.09 361.927L1520.09 1085.78C1520.09 1125.76 1487.69 1158.17 1447.71 1158.17L289.542 1158.17C249.565 1158.17 217.156 1125.76 217.156 1085.78L217.156 361.927Z" stroke="#FFFFFF" stroke-width="108.578" stroke-linecap="round" stroke-linejoin="round" fill="none" transform="matrix(1.0003 0 0 1 1266.79 431.903)"/><path d="M506.698 1447.71 1230.55 1447.71" stroke="#FFFFFF" stroke-width="108.578" stroke-linecap="round" stroke-linejoin="round" fill="none" transform="matrix(1.0003 0 0 1 1266.79 431.903)"/><path d="M651.469 1158.17 651.469 1447.71" stroke="#FFFFFF" stroke-width="108.578" stroke-linecap="round" stroke-linejoin="round" fill="none" transform="matrix(1.0003 0 0 1 1266.79 431.903)"/><path d="M1085.78 1158.17 1085.78 1447.71" stroke="#FFFFFF" stroke-width="108.578" stroke-linecap="round" stroke-linejoin="round" fill="none" transform="matrix(1.0003 0 0 1 1266.79 431.903)"/><path d="M2096.62 1060.5C2128.64 1095.01 2160.66 1129.52 2168.42 1147.7 2176.17 1165.89 2164.13 1169.72 2143.13 1169.63 2122.13 1169.55 2062.91 1147.11 2042.44 1147.19 2021.97 1147.28 2014.74 1154.25 2020.31 1170.14 2025.88 1186.04 2047.41 1230.49 2075.85 1242.56 2104.3 1254.63 2164.05 1248.51 2190.99 1242.56 2217.93 1236.61 2230.58 1213.15 2237.5 1206.86" stroke="#FFFFFF" stroke-width="6.875" stroke-miterlimit="8" fill="none" fill-rule="evenodd"/><path d="M2142.22 1127.4C2123.96 1121.5 2075.06 1113.51 2057.88 1111.92 2040.7 1110.33 2042.98 1113.5 2039.14 1117.87 2035.31 1122.23 2035.64 1133.01 2034.87 1138.11 2034.1 1143.2 2032.4 1147.17 2034.54 1148.42 2036.68 1149.68 2038.65 1144.45 2047.69 1145.64 2056.73 1146.84 2077.89 1152.59 2088.79 1155.57 2099.7 1158.54 2103.21 1161.19 2113.12 1163.5 2123.04 1165.82 2139.37 1169.19 2148.31 1169.45 2157.24 1169.72 2163.76 1168.92 2166.72 1165.09 2171.7 1160.1 2171.56 1153.61 2167.48 1147.33 2163.4 1141.05 2160.49 1133.31 2142.22 1127.4Z" stroke="#FFFFFF" stroke-width="6.875" stroke-miterlimit="8" fill="#DCEAF7" fill-rule="evenodd"/><path d="M2212.19 991.464C2175.94 979.842 2139.7 968.22 2120.45 972.352 2101.21 976.484 2098.38 1010.15 2096.74 1016.26 2095.1 1022.37 2102.18 1009.11 2110.61 1009.03 2119.04 1008.94 2134.25 1012.9 2147.3 1015.74 2160.36 1018.58 2174.54 1023.4 2188.94 1026.07 2203.33 1028.74 2228.3 1037.09 2233.67 1031.75 2239.04 1026.42 2232.1 1014.36 2219.35 1000.25" stroke="#FFFFFF" stroke-width="6.875" stroke-miterlimit="8" fill="#DCEAF7" fill-rule="evenodd"/><path d="M2168.99 885.5C2157.97 887.026 2141.39 894.911 2152.29 917.549 2163.2 940.188 2227.64 1003.35 2234.41 1021.33 2241.17 1039.3 2215.23 1031.42 2192.9 1025.4 2170.56 1019.38 2134.47 1008.02 2116.65 1009.63 2098.83 1011.24 2089.05 1026.59 2085.97 1035.06 2082.89 1043.54 2095.9 1060.5 2098.15 1060.5" stroke="#FFFFFF" stroke-width="6.875" stroke-miterlimit="8" fill="none" fill-rule="evenodd"/><path d="M2319.94 869.648C2321.08 873.5 2322.21 877.352 2304.55 873.712 2286.89 870.071 2234.75 851.614 2213.99 847.804 2193.24 843.994 2187.73 844.841 2180.04 850.852 2172.34 856.864 2166 878.538 2167.81 883.872 2169.62 889.206 2172.19 879.046 2190.9 882.856 2209.62 886.666 2261.69 902.752 2280.1 906.731 2298.51 910.711 2301.38 906.731 2301.38 906.731" stroke="#FFFFFF" stroke-width="6.875" stroke-miterlimit="8" fill="#DCEAF7" fill-rule="evenodd"/><path d="M2169.5 884.5C2197.76 917.012 2226.01 949.523 2239.43 967.38 2252.85 985.236 2250.55 982.793 2250.01 991.637 2249.48 1000.48 2237.13 1017.44 2234.14 1023.5" stroke="#FFFFFF" stroke-width="6.875" stroke-miterlimit="8" fill="none" fill-rule="evenodd"/><path d="M2111.5 1010.5C2113.12 1018.01 2114.73 1025.52 2127.28 1042.06 2139.82 1058.61 2175.79 1096.51 2186.77 1109.77 2197.76 1123.03 2194.08 1117.04 2193.2 1121.6 2192.31 1126.17 2184.8 1132.91 2181.48 1137.13 2178.15 1141.35 2175.51 1144.13 2173.25 1146.93 2171 1149.73 2170.85 1150.58 2168.29 1150.49" stroke="#FFFFFF" stroke-width="6.875" stroke-miterlimit="8" fill="none" fill-rule="evenodd"/><path d="M2200.79 1186.41 2343.96 987.714 2319.64 970.189 2403.33 956.594 2416.92 1040.29 2392.6 1022.76 2249.43 1221.46Z" stroke="#FFFFFF" stroke-width="6.875" stroke-miterlimit="8" fill="#156082" fill-rule="evenodd"/><path d="M2394.5 955.18C2404.61 940.953 2414.14 926.853 2422.95 914.785 2431.75 902.718 2436.78 888.363 2447.33 882.774 2457.88 877.185 2474.91 872.739 2486.23 881.25 2497.55 889.761 2510.61 914.785 2515.26 933.84 2519.9 952.894 2516.23 975.632 2514.1 995.575 2511.97 1015.52 2506.16 1041.56 2502.49 1053.5" stroke="#FFFFFF" stroke-width="6.875" stroke-miterlimit="8" fill="none" fill-rule="evenodd"/><path d="M2543.93 1063.31 2403.98 1264.29 2428.58 1281.43 2345.11 1296.37 2330.17 1212.9 2354.77 1230.03 2494.72 1029.05Z" stroke="#FFFFFF" stroke-width="6.875" stroke-miterlimit="8" fill="#156082" fill-rule="evenodd"/><path d="M83.9579 0C118.371 30.4581 152.784 60.9164 161.114 76.9707 169.445 93.025 156.504 96.4009 133.94 96.3259 111.375 96.2509 47.7252 76.4456 25.7266 76.5206 3.7281 76.5955-4.03607 82.7473 1.94888 96.776 7.93382 110.805 31.0645 150.04 61.6359 160.693 92.2073 171.346 156.424 165.945 185.377 160.693 214.331 155.442 227.919 134.736 235.359 129.185" stroke="#FFFFFF" stroke-width="6.875" stroke-miterlimit="8" fill="none" fill-rule="evenodd" transform="matrix(-0.445407 -0.895328 -0.895328 0.445407 2570.55 1435.49)"/><path d="M117.748 13.9749C97.9658 8.78822 45.0151 1.76204 26.4089 0.365512 7.80275-1.03101 10.2654 1.76021 6.11083 5.59561 1.95625 9.43102 2.31236 18.9034 1.48144 23.378 0.650526 27.8525-1.18927 31.3394 1.12533 32.4435 3.43993 33.5475 5.57676 28.9567 15.3696 30.0027 25.1624 31.0488 48.072 36.1044 59.8829 38.7196 71.6939 41.3347 75.4922 43.6592 86.2348 45.693 96.9773 47.7271 114.664 50.6907 124.338 50.9231 134.012 51.1556 141.075 50.4582 144.28 47.0877 149.669 42.7043 149.524 37.0048 145.102 31.486 140.68 25.9673 137.53 19.1617 117.748 13.9749Z" stroke="#FFFFFF" stroke-width="6.875" stroke-miterlimit="8" fill="#DCEAF7" fill-rule="evenodd" transform="matrix(-0.445407 -0.895328 -0.895328 0.445407 2523.21 1441.95)"/><path d="M124.219 17.3972C85.3005 7.26945 46.3815-2.85827 25.7209 0.742699 5.06018 4.34366 2.01707 33.6765 0.255374 39.003-1.50633 44.3294 6.10116 32.7762 15.1503 32.7013 24.1994 32.6263 40.5325 36.0772 54.5497 38.5528 68.5669 41.0285 83.7981 45.2297 99.2535 47.5552 114.709 49.8808 141.517 57.1579 147.282 52.5066 153.048 47.8553 145.601 37.3526 131.907 25.0492" stroke="#FFFFFF" stroke-width="6.875" stroke-miterlimit="8" fill="#DCEAF7" fill-rule="evenodd" transform="matrix(-0.445407 -0.895328 -0.895328 0.445407 2602.99 1325.53)"/><path d="M89.7934 0C77.9448 1.35036 60.1117 8.32724 71.8388 28.3576 83.5658 48.388 152.877 104.278 160.156 120.182 167.435 136.087 139.533 129.11 115.512 123.783 91.4918 118.457 52.671 108.404 33.5032 109.83 14.3354 111.255 3.82152 124.834 0.505511 132.336-2.8105 139.838 11.1812 154.842 13.6075 154.842" stroke="#FFFFFF" stroke-width="6.875" stroke-miterlimit="8" fill="none" fill-rule="evenodd" transform="matrix(-0.445407 -0.895328 -0.895328 0.445407 2676.79 1302.44)"/><path d="M163.382 21.3969C164.595 24.8102 165.808 28.2237 146.883 24.9979 127.958 21.772 72.0719 5.41758 49.8307 2.04167 27.5896-1.33424 21.6856-0.584094 13.4362 4.7424 5.18675 10.0689-1.6069 29.274 0.334142 34.0003 2.27518 38.7266 5.02493 29.7241 25.0824 33.1 45.1399 36.4759 100.945 50.7297 120.679 54.2557 140.413 57.7817 143.486 54.2557 143.486 54.2557" stroke="#FFFFFF" stroke-width="6.875" stroke-miterlimit="8" fill="#DCEAF7" fill-rule="evenodd" transform="matrix(-0.445407 -0.895328 -0.895328 0.445407 2668.73 1207.06)"/><path d="M0 0C30.6762 28.663 61.3526 57.3262 75.9206 73.0687 90.4886 88.8112 87.9912 86.6577 87.4086 94.4547 86.8259 102.252 73.4232 117.199 70.1766 122.545" stroke="#FFFFFF" stroke-width="6.875" stroke-miterlimit="8" fill="none" fill-rule="evenodd" transform="matrix(-0.445407 -0.895328 -0.895328 0.445407 2637.19 1221.39)"/><path d="M0 0C1.73872 6.63929 3.47763 13.2786 16.9841 27.9075 30.4906 42.5364 69.2103 76.0517 81.0384 87.7736 92.8666 99.4955 88.9037 94.2066 87.9534 98.2389 87.0031 102.271 78.9153 108.235 75.3366 111.968 71.7579 115.7 68.9069 118.157 66.4806 120.632 64.0543 123.108 63.8925 123.858 61.1428 123.783" stroke="#FFFFFF" stroke-width="6.875" stroke-miterlimit="8" fill="none" fill-rule="evenodd" transform="matrix(-0.445407 -0.895328 -0.895328 0.445407 2565.51 1326.34)"/></g></svg>